<svg width="168" height="35" viewBox="0 0 168 35" fill="none" xmlns="http://www.w3.org/2000/svg">
<g clip-path="url(#clip0_44_923)">
<path d="M27.3232 31.5925C19.5427 31.5925 13.2372 25.2836 13.2372 17.5017C13.2372 9.71936 19.5427 3.41654 27.3232 3.41654C30.0655 3.41654 32.6259 4.19867 34.7888 5.55437L27.3232 17.5017L41.378 9.38635C39.851 6.95337 37.6609 4.85696 35.0126 3.26614C31.6427 1.2486 26.955 0 21.7715 0C14.3774 0 7.8905 2.68692 4.27293 6.71072C1.59458 9.68527 0 13.429 0 17.5015C0 21.577 1.59458 25.3234 4.27293 28.3C7.89991 32.3288 14.2902 35.0001 21.5623 35.0001C28.8334 35.0001 35.2218 32.3268 38.8511 28.3C39.0498 28.0783 39.2423 27.8545 39.4242 27.6223L38.8762 25.5681C36.3263 29.2079 32.1029 31.5925 27.3232 31.5925Z" fill="white"/>
<path d="M73.9207 34.1521L68.0218 12.1463C67.0742 8.59027 63.8361 5.97656 59.9809 5.97656C58.981 5.97656 58.0229 6.1552 57.1339 6.4786L44.4346 11.0965H57.4958L59.7278 19.4319C57.5627 17.5685 54.743 16.4347 51.6555 16.4347C45.5244 16.4347 40.5605 20.5433 40.5605 25.6113C40.5605 30.6797 45.5244 34.7943 51.6555 34.7943C56.0692 34.7943 59.9725 32.6335 62.3802 29.3138L63.675 34.1521H73.9207ZM55.9269 30.7341C53.0988 30.7341 50.8062 28.4436 50.8062 25.6113C50.8062 22.7832 53.0988 20.4906 55.9269 20.4906C58.7551 20.4906 61.0498 22.7832 61.0498 25.6113C61.0498 28.4436 58.7551 30.7341 55.9269 30.7341Z" fill="white"/>
<path d="M97.9708 5.98047C97.1969 5.98047 96.4647 6.15158 95.8121 6.45803L87.6582 10.258C87.2545 7.83067 85.146 5.98047 82.6023 5.98047C81.8326 5.98047 81.0983 6.15158 80.4373 6.45803L70.4824 11.0966H77.4816V34.1525H87.7273V13.6616C87.7273 12.2477 88.8715 11.0968 90.2897 11.0968C91.6996 11.0968 92.8522 12.2477 92.8522 13.6616V34.1525H103.094V11.0966C103.094 8.26911 100.799 5.98047 97.9708 5.98047Z" fill="white"/>
<path d="M162.223 5.98047C161.447 5.98047 160.711 6.15158 160.048 6.45803L151.902 10.258C151.5 7.83067 149.392 5.98047 146.848 5.98047C146.079 5.98047 145.344 6.15158 144.681 6.45803L134.73 11.0966H141.728V34.1525H151.971V13.6616C151.971 12.2477 153.117 11.0968 154.536 11.0968C155.95 11.0968 157.094 12.2477 157.094 13.6616V34.1525H167.344V11.0966C167.344 8.26911 165.047 5.98047 162.223 5.98047Z" fill="white"/>
<path d="M136.387 20.4905C136.387 28.5044 129.892 34.9994 121.88 34.9994C113.863 34.9994 107.363 28.5044 107.363 20.4905C107.363 12.4787 113.863 5.98047 121.88 5.98047C129.892 5.98047 136.387 12.4789 136.387 20.4905ZM122.481 10.3841C122.025 8.67681 120.27 7.66333 118.563 8.12227C116.858 8.57933 115.839 10.3354 116.297 12.0425L121.274 30.5962C121.734 32.3052 123.485 33.3176 125.192 32.8658C126.899 32.4035 127.913 30.6485 127.455 28.9416L122.481 10.3841Z" fill="white"/>
</g>
<defs>
<clipPath id="clip0_44_923">
<rect width="167.344" height="35" fill="white"/>
</clipPath>
</defs>
</svg>
