<svg width="178" height="35" viewBox="0 0 178 35" fill="none" xmlns="http://www.w3.org/2000/svg">
<g clip-path="url(#clip0_50_3932)">
<path d="M168.75 14.0625L162.625 19.6875L168.75 25.3125V28.5625H168.563L159.438 20.25V28.125H156.812V4.25H159.438V19.1875L168.563 10.9375H168.813V14.0625H168.75ZM49.3125 28.125H62.8125V25.4375H52.0625V5.0625H49.3125V28.125ZM72.1875 10.9375C68.0625 10.9375 64.25 14.3125 64.25 19.75C64.25 25 67.6875 28.5 72.6875 28.5C74.875 28.5 76.9375 27.9375 78.8125 26.625V23.75C76.875 25.375 74.75 26.0625 72.8125 26.0625C69.8125 26.0625 67.1875 24.1875 66.9375 20.75H79.5625C79.5625 20.4375 79.6875 19.6875 79.6875 19.375C79.625 13.8125 76.25 10.9375 72.1875 10.9375ZM72.1875 13.3125C74.5 13.3125 76.9375 14.8125 77 18.4375H66.875C67.0625 15.625 69.1875 13.3125 72.1875 13.3125ZM116.625 10.9375C114.375 10.9375 112.75 12.125 111.812 13.875C111 12 109.5 10.9375 107.125 10.9375C105.062 10.9375 103.5 12.125 102.625 13.75H102.5L102.188 11.25H100.125V28.125H102.812V17.5C102.812 15.4375 104.062 13.5 106.438 13.5C108.688 13.5 109.688 14.8125 109.688 17.25V28.125H112.375V17.3125C112.375 15.375 113.688 13.5 115.938 13.5C118.25 13.5 119.25 14.8125 119.25 17.25V28.125H121.938V16.875C122 13.375 120.312 10.9375 116.625 10.9375ZM132.812 10.9375C128.812 10.9375 125.062 14.3125 125.062 19.75C125.062 25.0625 128.812 28.5 132.812 28.5C135.312 28.5 137.688 27.3125 139 25H139.062L139.375 28.125H141.562V11.25H139.375L139.062 14.375H139C137.75 12.125 135.375 10.9375 132.812 10.9375ZM133.312 13.4375C136.5 13.4375 138.875 16 138.875 19.6875C138.875 23.375 136.5 25.9375 133.312 25.9375C130.188 25.9375 127.75 23.4375 127.75 19.6875C127.75 15.9375 130.188 13.4375 133.312 13.4375ZM153 11.0625C151.562 11.0625 149.313 11.75 148.188 13.9375L147.937 11.25H145.812V28.125H148.5V18.4375C148.5 14.5625 151.625 13.3125 154.25 13.875V11.1875C153.75 11.125 153.437 11.0625 153 11.0625ZM96.6875 10.875H96.5L89.4375 17.875L82.4375 10.875H82.25V14.25L87.6875 19.6875L82.25 25.0625V28.5H82.4375L89.375 21.5L96.4375 28.5625H96.6875V25.125L91.25 19.6875L96.6875 14.1875V10.875ZM170.063 4.4375V4.0625H172.875V4.4375H171.688V7.25H171.25V4.4375H170.063ZM174.25 4.0625L175.438 6.75L176.625 4.0625H177.188V7.25H176.875V4.5625L175.688 7.1875H175.312L174.125 4.5625V7.1875H173.75V4.0625H174.25Z" fill="white"/>
<path d="M34.8125 28.25V0.25H28L17.4375 10.8125L34.8125 28.25Z" fill="#DADADA"/>
<path d="M0 7.0625V35.0625H6.8125L17.375 24.4375L0 7.0625Z" fill="#929292"/>
<path d="M6.8125 35.0625H34.8125V28.25L24.25 17.625L6.8125 35.0625Z" fill="white"/>
<path d="M28 0.25H0V7.0625L10.5625 17.625L28 0.25Z" fill="#BFBFBF"/>
</g>
<defs>
<clipPath id="clip0_50_3932">
<rect width="177.5" height="35" fill="white"/>
</clipPath>
</defs>
</svg>
