<svg width="126" height="35" viewBox="0 0 126 35" fill="none" xmlns="http://www.w3.org/2000/svg">
<path d="M69.1287 33.5701V29.2194H64.8857V21.1303L68.6136 18.7204L77.5437 29.2194H74.57V33.5701H95.2908V29.2194H91.6142L77.1468 13.2081L87.8929 6.26218H92.9072V1.91406H74.57V6.26218H78.3518L64.8857 15.0319V6.26218H69.1287V1.91406H48.4434V6.26218H52.6837V29.2194H48.4434V33.5701H69.1287Z" fill="white"/>
<path d="M122.088 33.5709V29.2201H117.532V6.25896H122.088V1.9082H99.6289V6.25896H104.187V29.2201H99.6289V33.5709H122.088Z" fill="white"/>
<path d="M31.4848 26.5125C30.2247 29.2405 27.6452 29.7871 24.5231 29.7871C21.3984 29.7871 18.8229 29.2405 17.5615 26.5125C16.6679 24.5757 16.5194 20.1855 16.5194 17.7507C16.5194 15.3105 16.6679 10.923 17.5615 8.98746C18.8229 6.25561 21.3984 5.71161 24.5231 5.71161C27.6452 5.71161 30.2247 6.25561 31.4848 8.98746C32.3744 10.923 32.5242 15.3105 32.5242 17.7507C32.5242 20.1855 32.3744 24.5757 31.4848 26.5125ZM40.3308 4.06121C36.6016 1.10203 28.163 1.12305 24.5231 1.12305C20.8793 1.12305 12.4446 1.10203 8.71282 4.06121C4.69849 7.24114 3.13086 10.8402 3.13086 17.7507C3.13086 24.6532 4.69849 28.2563 8.71282 31.4362C12.4446 34.3954 20.8793 34.3731 24.5231 34.3731C28.163 34.3731 36.6016 34.3954 40.3308 31.4362C44.3478 28.2563 45.9154 24.6532 45.9154 17.7507C45.9154 10.8402 44.3478 7.24114 40.3308 4.06121Z" fill="white"/>
</svg>
